<svg xmlns="http://www.w3.org/2000/svg" version="1.1" xmlns:xlink="http://www.w3.org/1999/xlink" xmlns:svgjs="http://svgjs.dev/svgjs" width="1000" height="1000" viewBox="0 0 1000 1000"><rect width="1000" height="1000" fill="#ffffff"></rect><g transform="matrix(0.7,0,0,0.7,149.93563029468288,131.04898785425098)"><svg viewBox="0 0 234 247" data-background-color="#ffffff" preserveAspectRatio="xMidYMid meet" height="1055" width="1000" xmlns="http://www.w3.org/2000/svg" xmlns:xlink="http://www.w3.org/1999/xlink"><g id="tight-bounds" transform="matrix(1,0,0,1,0.02151787292029894,-0.09999999999999432)"><svg viewBox="0 0 233.95696425415943 247.2" height="247.2" width="233.95696425415943"><g><svg viewBox="0 0 350.9265560165975 370.7906064" height="247.2" width="233.95696425415943"><g><svg viewBox="0 0 350.9265560165975 370.7906064" height="370.7906064" width="350.9265560165975"><g id="textblocktransform"><svg viewBox="0 0 350.9265560165975 370.7906064" height="370.7906064" width="350.9265560165975" id="textblock"><g><rect width="350.9265560165975" height="247.2" fill="none" stroke-width="9.018103199999999" stroke="#50a060" data-fill-palette-color="none" data-stroke-palette-color="tertiary"></rect><rect width="350.9265560165975" height="123.5906064" y="247.2" fill="#50a060" data-fill-palette-color="tertiary"></rect></g><g><svg viewBox="0 0 350.9265560165975 247.2" height="247.2" width="350.9265560165975"><g transform="matrix(1,0,0,1,23.607599999999998,23.607599999999998)"><svg width="303.7113560165975" viewBox="4.150000095367432 -35.45000076293945 54.89999771118164 36.150001525878906" height="199.9848" data-palette-color="#50a060"><path d="M27.6 0L4.15 0 4.15-34.65 26.4-34.65 26.4-29.3 10.45-29.3 10.45-20.75 24.65-20.75 24.65-15.5 10.45-15.5 10.45-5.35 27.6-5.35 27.6 0ZM48.4-29.9L48.4-29.9Q43.05-29.9 40.22-26.58 37.4-23.25 37.4-17.35L37.4-17.35Q37.4-14.55 38.07-12.23 38.75-9.9 40.07-8.25 41.4-6.6 43.37-5.68 45.35-4.75 48-4.75L48-4.75Q49.65-4.75 50.85-4.88 52.05-5 52.75-5.2L52.75-5.2 52.75-17.65 59.05-17.65 59.05-1Q57.75-0.5 54.65 0.1 51.55 0.7 47.5 0.7L47.5 0.7Q43.75 0.7 40.65-0.5 37.55-1.7 35.37-4 33.2-6.3 32-9.65 30.8-13 30.8-17.35L30.8-17.35Q30.8-21.7 32.12-25.05 33.45-28.4 35.75-30.73 38.05-33.05 41.15-34.25 44.25-35.45 47.75-35.45L47.75-35.45Q50.15-35.45 52.02-35.13 53.9-34.8 55.25-34.4 56.6-34 57.47-33.55 58.35-33.1 58.7-32.9L58.7-32.9 56.8-27.75Q55.3-28.65 53.07-29.28 50.85-29.9 48.4-29.9Z" opacity="1" transform="matrix(1,0,0,1,0,0)" fill="#50a060" class="undefined-text-0" data-fill-palette-color="primary" id="text-0"></path></svg></g></svg></g></svg></g></svg></g></svg></g><defs></defs></svg><rect width="233.95696425415943" height="247.2" fill="none" stroke="none" visibility="hidden"></rect></g></svg></g></svg>