<svg xmlns="http://www.w3.org/2000/svg" version="1.1" xmlns:xlink="http://www.w3.org/1999/xlink" xmlns:svgjs="http://svgjs.dev/svgjs" width="1000" height="275" viewBox="0 0 1000 275"><g transform="matrix(1,0,0,1,-0.6060606060606233,0.24643944594564005)"><svg viewBox="0 0 396 109" data-background-color="#ffffff" preserveAspectRatio="xMidYMid meet" height="275" width="1000" xmlns="http://www.w3.org/2000/svg" xmlns:xlink="http://www.w3.org/1999/xlink"><g id="tight-bounds" transform="matrix(1,0,0,1,0.2400000000000091,-0.09767963493845855)"><svg viewBox="0 0 395.52 109.19535926987695" height="109.19535926987695" width="395.52"><g><svg viewBox="0 0 395.52 109.19535926987695" height="109.19535926987695" width="395.52"><g><svg viewBox="0 0 395.52 109.19535926987695" height="109.19535926987695" width="395.52"><g id="textblocktransform"><svg viewBox="0 0 395.52 109.19535926987695" height="109.19535926987695" width="395.52" id="textblock"><g><rect width="395.52" height="85.52184973416375" fill="none" stroke-width="9.018103199999999" stroke="#50a060" data-fill-palette-color="none" data-stroke-palette-color="tertiary"></rect><rect width="395.52" height="23.6735095357132" y="85.52184973416375" fill="#50a060" data-fill-palette-color="tertiary"></rect></g><g><svg viewBox="0 0 395.52 85.52184973416375" height="85.52184973416375" width="395.52"><g transform="matrix(1,0,0,1,23.607599999999998,23.607599999999998)"><svg width="348.3048" viewBox="4.15 -35.45 329.13 36.2" height="38.306649734163756" data-palette-color="#50a060"><path d="M27.6 0L4.15 0 4.15-34.65 26.4-34.65 26.4-29.3 10.45-29.3 10.45-20.75 24.65-20.75 24.65-15.5 10.45-15.5 10.45-5.35 27.6-5.35 27.6 0ZM49.4 0L43.35 0Q39.6-8.1 36.12-16.95 32.65-25.8 29.65-34.65L29.65-34.65 36.6-34.65Q37.8-31.15 39.05-27.5 40.3-23.85 41.55-20.33 42.8-16.8 44.05-13.5 45.3-10.2 46.5-7.45L46.5-7.45Q47.65-10.2 48.9-13.48 50.15-16.75 51.42-20.3 52.7-23.85 53.95-27.5 55.2-31.15 56.35-34.65L56.35-34.65 63.1-34.65Q60.05-25.8 56.6-16.95 53.15-8.1 49.4 0L49.4 0ZM91.05 0L67.59 0 67.59-34.65 89.84-34.65 89.84-29.3 73.89-29.3 73.89-20.75 88.09-20.75 88.09-15.5 73.89-15.5 73.89-5.35 91.05-5.35 91.05 0ZM125.59 0L120.24 0Q118.54-2.85 116.44-6.13 114.34-9.4 112.09-12.73 109.84-16.05 107.52-19.18 105.19-22.3 103.09-24.8L103.09-24.8 103.09 0 96.89 0 96.89-34.65 102.04-34.65Q104.04-32.55 106.34-29.68 108.64-26.8 110.97-23.7 113.29-20.6 115.47-17.48 117.64-14.35 119.34-11.65L119.34-11.65 119.34-34.65 125.59-34.65 125.59 0ZM130.39-34.65L158.04-34.65 158.04-29.2 147.39-29.2 147.39 0 141.04 0 141.04-29.2 130.39-29.2 130.39-34.65ZM177.84-29.9L177.84-29.9Q172.49-29.9 169.66-26.58 166.84-23.25 166.84-17.35L166.84-17.35Q166.84-14.55 167.51-12.23 168.19-9.9 169.51-8.25 170.84-6.6 172.81-5.68 174.79-4.75 177.44-4.75L177.44-4.75Q179.09-4.75 180.29-4.88 181.49-5 182.19-5.2L182.19-5.2 182.19-17.65 188.49-17.65 188.49-1Q187.19-0.5 184.09 0.1 180.99 0.7 176.94 0.7L176.94 0.7Q173.19 0.7 170.09-0.5 166.99-1.7 164.81-4 162.64-6.3 161.44-9.65 160.24-13 160.24-17.35L160.24-17.35Q160.24-21.7 161.56-25.05 162.89-28.4 165.19-30.73 167.49-33.05 170.59-34.25 173.69-35.45 177.19-35.45L177.19-35.45Q179.59-35.45 181.46-35.13 183.34-34.8 184.69-34.4 186.04-34 186.91-33.55 187.79-33.1 188.14-32.9L188.14-32.9 186.24-27.75Q184.74-28.65 182.51-29.28 180.29-29.9 177.84-29.9ZM219.24 0L195.79 0 195.79-34.65 218.04-34.65 218.04-29.3 202.09-29.3 202.09-20.75 216.29-20.75 216.29-15.5 202.09-15.5 202.09-5.35 219.24-5.35 219.24 0ZM253.78 0L248.43 0Q246.73-2.85 244.63-6.13 242.53-9.4 240.28-12.73 238.03-16.05 235.71-19.18 233.38-22.3 231.28-24.8L231.28-24.8 231.28 0 225.08 0 225.08-34.65 230.23-34.65Q232.23-32.55 234.53-29.68 236.83-26.8 239.16-23.7 241.48-20.6 243.66-17.48 245.83-14.35 247.53-11.65L247.53-11.65 247.53-34.65 253.78-34.65 253.78 0ZM262.08 0L262.08-34.65 268.38-34.65 268.38 0 262.08 0ZM290.03 0.75L290.03 0.75Q286.48 0.75 283.93-0.28 281.38-1.3 279.7-3.15 278.03-5 277.23-7.5 276.43-10 276.43-13L276.43-13 276.43-34.65 282.78-34.65 282.78-13.6Q282.78-11.25 283.3-9.58 283.83-7.9 284.8-6.85 285.78-5.8 287.1-5.3 288.43-4.8 290.08-4.8L290.08-4.8Q291.73-4.8 293.08-5.3 294.43-5.8 295.4-6.85 296.38-7.9 296.9-9.58 297.43-11.25 297.43-13.6L297.43-13.6 297.43-34.65 303.78-34.65 303.78-13Q303.78-10 302.95-7.5 302.13-5 300.45-3.15 298.78-1.3 296.18-0.28 293.58 0.75 290.03 0.75ZM320.23-4.7L320.23-4.7Q323.63-4.7 325.18-5.85 326.73-7 326.73-9.1L326.73-9.1Q326.73-10.35 326.2-11.25 325.68-12.15 324.7-12.88 323.73-13.6 322.32-14.23 320.93-14.85 319.13-15.45L319.13-15.45Q317.32-16.1 315.65-16.88 313.98-17.65 312.7-18.8 311.43-19.95 310.65-21.55 309.88-23.15 309.88-25.4L309.88-25.4Q309.88-30.1 313.13-32.77 316.38-35.45 321.98-35.45L321.98-35.45Q325.23-35.45 327.75-34.73 330.28-34 331.73-33.15L331.73-33.15 329.78-28.05Q328.07-29 326.05-29.5 324.03-30 321.88-30L321.88-30Q319.32-30 317.9-28.95 316.48-27.9 316.48-26L316.48-26Q316.48-24.85 316.95-24.03 317.43-23.2 318.3-22.55 319.18-21.9 320.35-21.35 321.53-20.8 322.93-20.3L322.93-20.3Q325.38-19.4 327.3-18.48 329.23-17.55 330.55-16.28 331.88-15 332.57-13.28 333.28-11.55 333.28-9.1L333.28-9.1Q333.28-4.4 329.95-1.83 326.63 0.75 320.23 0.75L320.23 0.75Q318.07 0.75 316.3 0.48 314.53 0.2 313.15-0.2 311.78-0.6 310.78-1.03 309.78-1.45 309.18-1.8L309.18-1.8 311.03-6.95Q312.38-6.2 314.68-5.45 316.98-4.7 320.23-4.7Z" opacity="1" transform="matrix(1,0,0,1,0,0)" fill="#50a060" class="undefined-text-0" data-fill-palette-color="primary" id="text-0"></path></svg></g></svg></g></svg></g></svg></g></svg></g><defs></defs></svg><rect width="395.52" height="109.19535926987695" fill="none" stroke="none" visibility="hidden"></rect></g></svg></g></svg>